<svg width="250" height="52" viewBox="0 0 250 52" fill="none" xmlns="http://www.w3.org/2000/svg">
<path d="M1 29.125C1 27.3991 2.39911 26 4.125 26H10.375C12.1009 26 13.5 27.3991 13.5 29.125V47.875C13.5 49.6009 12.1009 51 10.375 51H4.125C2.39911 51 1 49.6009 1 47.875V29.125Z" stroke="#0F172A" stroke-width="1.5" stroke-linecap="round" stroke-linejoin="round"/>
<path d="M19.75 16.625C19.75 14.8991 21.1491 13.5 22.875 13.5H29.125C30.8509 13.5 32.25 14.8991 32.25 16.625V47.875C32.25 49.6009 30.8509 51 29.125 51H22.875C21.1491 51 19.75 49.6009 19.75 47.875V16.625Z" stroke="#0F172A" stroke-width="1.5" stroke-linecap="round" stroke-linejoin="round"/>
<path d="M38.5 4.125C38.5 2.39911 39.8991 1 41.625 1H47.875C49.6009 1 51 2.39911 51 4.125V47.875C51 49.6009 49.6009 51 47.875 51H41.625C39.8991 51 38.5 49.6009 38.5 47.875V4.125Z" stroke="#0F172A" stroke-width="1.5" stroke-linecap="round" stroke-linejoin="round"/>
<path d="M145 31.7692V25.0385C145 20.2591 140.971 16.3846 136 16.3846H132C130.343 16.3846 129 15.0931 129 13.5V9.65385C129 4.87446 124.971 1 120 1H115M115 33.6923H135M115 41.3846H125M121 1H108C106.343 1 105 2.29149 105 3.88461V48.1154C105 49.7085 106.343 51 108 51H142C143.657 51 145 49.7085 145 48.1154V24.0769C145 11.3319 134.255 1 121 1Z" stroke="#0F172A" stroke-width="1.5" stroke-linecap="round" stroke-linejoin="round"/>
<path d="M203.167 25.9979C203.167 37.6813 212.494 47.1525 224 47.1525C235.506 47.1525 244.833 37.6813 244.833 25.9979M203.167 25.9979C203.167 14.3145 212.494 4.8432 224 4.8432C235.506 4.8432 244.833 14.3145 244.833 25.9979M203.167 25.9979L199 25.9979M244.833 25.9979L249 25.9979M244.833 25.9979L224 25.9979M200.507 34.6803L204.423 33.2332M243.576 18.7626L247.492 17.3155M204.849 42.3172L208.04 39.5976M239.959 12.4017L243.151 9.68207M211.5 47.9846L213.583 44.3205M234.416 7.67957L236.5 4.01548M219.659 50.9999L220.382 46.8332M227.617 5.16666L228.341 0.999999M228.341 51L227.617 46.8333M220.382 5.16677L219.659 1.00012M236.5 47.9842L234.417 44.3201M211.5 4.01504L224 25.9979M243.151 42.3154L239.959 39.5958M208.041 12.3999L204.849 9.68032M247.492 34.6807L243.577 33.2336M204.423 18.763L200.508 17.3159M224 25.9979L213.583 44.3184" stroke="#0F172A" stroke-width="1.5" stroke-linecap="round" stroke-linejoin="round"/>
</svg>
